# xmcd CD database file
#
# Track frame offsets:
#	150
#	33667
#	57320
#	83777
#	109753
#	134983
#	168964
#	205449
#	238731
#	264866
#	280120
#
# Disc length: 4133 seconds
#
# Revision: 0
# Processed by: cddbd v1.5.2PL0 Copyright (c) Steve Scherf et al.
# Submitted via: CDex 1.70beta2
#
DISCID=a110230b
DTITLE=Jan Lungren Trio - Plays Cole Porter Love Songs
DYEAR=1900
DGENRE=Jazz
TTITLE0=I Love Paris
TTITLE1=When Love Comes Around
TTITLE2=You"d Be So Nice To Come Home To
TTITLE3=So In Love
TTITLE4=At Long Last Love
TTITLE5=What Is This Called Love
TTITLE6=Everytime We Say Goodbye
TTITLE7=Love For Sale
TTITLE8=Easy To Love
TTITLE9=True Love
TTITLE10=I love You
EXTD=
EXTT0=
EXTT1=
EXTT2=
EXTT3=
EXTT4=
EXTT5=
EXTT6=
EXTT7=
EXTT8=
EXTT9=
EXTT10=
PLAYORDER=
